# xmcd
#
# Track frame offsets:
#	150
#	18052
#	38765
#	55294
#	73273
#	93685
#	112118
#	129895
#	150625
#	167115
#	185099
#	205496
#
# Disc length: 2986 seconds
#
# Revision: 1
# Processed by: cddbd v1.5.2PL0 Copyright (c) Steve Scherf et al.
# Submitted via: audiograbber 1.83.01
#
DISCID=a90ba80c
DTITLE=Dierks Bentley - Chartbuster Karaoke
DYEAR=1900
DGENRE=Country
TTITLE0=How Am I Doin_Vocals
TTITLE1=What Was I Thinkin_Vocals
TTITLE2=My Last Name_Vocals
TTITLE3=Lot Of Leavin Left To Do_Vocals
TTITLE4=Come A Little Closer_Vocals
TTITLE5=Domestic Light And Cold_Vocals
TTITLE6=How Am I Doin
TTITLE7=What Was I Thinkin
TTITLE8=My Last Name
TTITLE9=Lot Of Leavin Left To Do
TTITLE10=Come A Little Closer
TTITLE11=Domestic Light And Cold
EXTD=
EXTT0=
EXTT1=
EXTT2=
EXTT3=
EXTT4=
EXTT5=
EXTT6=
EXTT7=
EXTT8=
EXTT9=
EXTT10=
EXTT11=
PLAYORDER=
